<?xml version="1.0" encoding="UTF-8"?><svg id="a" xmlns="http://www.w3.org/2000/svg" width="31.621mm" height="5.73mm" viewBox="0 0 89.634 16.243"><g id="b" transform="translate(-0.00145189)"><g id="c"><g id="d"><g id="e"><g id="f"><path id="g" d="M10.418,10.355H4.787c-.239,.577-.443,1.087-.611,1.529-.169,.443-.307,.826-.412,1.149-.104,.324-.179,.598-.221,.823s-.063,.407-.063,.548c0,.394,.127,.664,.38,.812,.253,.147,.675,.221,1.266,.221v.802H-.001v-.802c.323-.042,.602-.098,.834-.168,.231-.07,.436-.169,.611-.296,.176-.126,.33-.291,.464-.495,.134-.204,.264-.454,.391-.749L7.782,0h.906l4.788,11.896c.323,.788,.604,1.417,.844,1.888,.238,.471,.471,.826,.696,1.065s.467,.394,.728,.464c.26,.07,.572,.105,.938,.105v.822h-6.876v-.822c.745,0,1.258-.07,1.54-.211,.281-.141,.422-.373,.422-.696,0-.141-.008-.271-.021-.391-.015-.119-.039-.249-.074-.39-.035-.141-.084-.299-.147-.475-.063-.176-.145-.383-.242-.622l-.865-2.278h-.001Zm-5.209-1.054h4.809L7.677,3.079l-2.468,6.223h0Z" fill="#fff"/><path id="h" d="M30.285,4.07c0,1.126-.338,2.061-1.013,2.806-.675,.745-1.75,1.244-3.227,1.497l4.661,5.61c.38,.464,.798,.798,1.255,1.002,.457,.204,1.002,.355,1.635,.453v.802h-4.071l-5.167-6.622c-.183-.239-.355-.43-.517-.57-.162-.14-.33-.249-.506-.326-.177-.077-.38-.127-.612-.148-.231-.021-.51-.031-.833-.031v4.387c0,.521,.032,.946,.095,1.276s.197,.587,.401,.77c.203,.183,.499,.306,.886,.369,.387,.063,.896,.095,1.529,.095v.802h-7.445v-.802c.492-.014,.889-.056,1.191-.126,.302-.07,.538-.19,.707-.358,.168-.169,.28-.408,.337-.718,.057-.309,.085-.71,.085-1.202V3.206c0-.492-.025-.889-.074-1.191-.05-.303-.147-.541-.295-.718-.148-.175-.362-.295-.644-.358-.281-.062-.647-.108-1.097-.137V0h6.622C26.128,0,27.629,.358,28.691,1.076c1.062,.717,1.593,1.715,1.593,2.994h0Zm-8.395,3.417h1.498c1.405,0,2.449-.256,3.132-.77,.682-.514,1.022-1.36,1.022-2.542,0-1.139-.271-1.954-.812-2.446-.542-.492-1.389-.738-2.542-.738h-1.94c-.239,0-.358,.12-.358,.358V7.487Z" fill="#fff"/><path id="i" d="M49.097,4.028h-.864c-.042-.604-.141-1.11-.296-1.519-.154-.407-.376-.728-.664-.959-.288-.232-.65-.397-1.085-.496-.437-.098-.956-.147-1.561-.147-.521,0-.938,.011-1.255,.031-.316,.021-.56,.061-.728,.116-.169,.057-.278,.123-.327,.2-.05,.078-.074,.18-.074,.306V12.845c0,.45,.032,.837,.095,1.16s.19,.587,.38,.791c.19,.203,.464,.358,.822,.464,.359,.105,.834,.165,1.424,.179v.802h-7.972v-.802c.59-.014,1.068-.073,1.434-.179s.644-.261,.833-.464c.19-.204,.316-.468,.38-.791s.095-.71,.095-1.16V1.561c0-.126-.024-.228-.073-.306-.05-.077-.148-.144-.296-.2-.147-.056-.355-.095-.622-.116-.268-.021-.626-.031-1.075-.031-.549,0-1.059,.021-1.529,.063-.472,.042-.879,.165-1.224,.369-.345,.204-.622,.517-.833,.938s-.323,1.005-.337,1.75h-.78V0h15.922l.211,4.028h0Z" fill="#fff"/><path id="j" d="M54.939,12.254c0,.703,.028,1.259,.085,1.666,.056,.408,.165,.725,.326,.949,.162,.226,.394,.373,.696,.443s.699,.112,1.191,.126v.802h-6.833v-.802c.492-.014,.889-.06,1.191-.137,.302-.077,.538-.222,.707-.433,.168-.211,.28-.51,.337-.896,.057-.386,.085-.91,.085-1.571V3.839c0-.591-.025-1.079-.074-1.466-.05-.387-.147-.692-.295-.918-.148-.225-.362-.383-.644-.474-.281-.092-.647-.151-1.097-.18V0h6.411V.802c-.45,.014-.812,.07-1.086,.169s-.485,.264-.633,.495c-.147,.232-.246,.552-.295,.96-.05,.408-.074,.928-.074,1.561V12.254h.002Z" fill="#fff"/><path id="k" d="M72.086,4.07c0,1.126-.338,2.061-1.013,2.806s-1.75,1.244-3.227,1.497l4.661,5.61c.38,.464,.798,.798,1.255,1.002s1.002,.355,1.635,.453v.802h-4.071l-5.167-6.622c-.183-.239-.355-.43-.517-.57-.162-.14-.33-.249-.506-.326-.177-.077-.38-.127-.612-.148-.231-.021-.51-.031-.833-.031v4.387c0,.521,.032,.946,.095,1.276s.197,.587,.401,.77c.203,.183,.499,.306,.886,.369,.387,.063,.896,.095,1.529,.095v.802h-7.445v-.802c.492-.014,.889-.056,1.191-.126,.302-.07,.538-.19,.707-.358,.168-.169,.28-.408,.337-.718,.057-.309,.085-.71,.085-1.202V3.206c0-.492-.025-.889-.074-1.191-.05-.303-.147-.541-.295-.718-.148-.175-.362-.295-.644-.358-.281-.062-.647-.108-1.097-.137V0h6.622c1.94,0,3.441,.358,4.503,1.076,1.062,.717,1.593,1.715,1.593,2.994h0Zm-8.395,3.417h1.498c1.405,0,2.449-.256,3.132-.77,.682-.514,1.022-1.36,1.022-2.542,0-1.139-.271-1.954-.812-2.446-.542-.492-1.389-.738-2.542-.738h-1.94c-.239,0-.358,.12-.358,.358V7.487Z" fill="#fff"/><path id="l" d="M76.495,2.615c-.211-.365-.408-.664-.591-.896-.183-.231-.369-.418-.559-.559-.19-.141-.391-.235-.601-.284-.211-.05-.465-.074-.76-.074V0h6.644V.802c-.703,0-1.199,.053-1.486,.158-.289,.105-.433,.292-.433,.559,0,.296,.161,.718,.484,1.266l3.27,5.589h.084l2.384-4.007c.45-.76,.77-1.356,.96-1.793,.189-.436,.284-.787,.284-1.055s-.102-.453-.306-.559c-.204-.106-.559-.158-1.065-.158V0h4.83V.802c-.295,0-.559,.042-.791,.127-.231,.084-.475,.253-.728,.506-.253,.253-.531,.604-.833,1.055-.303,.45-.672,1.04-1.107,1.771l-3.248,5.483v2.51c0,.689,.024,1.241,.074,1.656,.049,.414,.154,.734,.316,.959,.161,.226,.394,.377,.695,.454,.303,.077,.707,.115,1.213,.115v.802h-6.833v-.802c.506,0,.91-.038,1.213-.115,.302-.077,.534-.226,.695-.443,.162-.218,.271-.523,.327-.917s.084-.914,.084-1.562v-2.573l-4.218-7.213h.002Z" fill="#fff"/></g></g></g></g></g></svg>