<svg xmlns="http://www.w3.org/2000/svg" width="500" zoomAndPan="magnify" viewBox="0 0 375 374.999991" height="500"
     preserveAspectRatio="xMidYMid meet" version="1.0"><defs><g/></defs><g fill="#ffffff" fill-opacity="1"><g transform="translate(113.667951, 194.812479)"><g><path d="M 15.441406 0 L 33.574219 0 L 33.574219 -88.515625 L 66.429688 -39.679688 L 76.664062 -39.679688 L 109.519531 -88.515625 L 109.519531 0 L 127.476562 0 L 127.476562 -125.679688 L 113.113281 -125.679688 L 71.636719 -64.636719 L 30.164062 -125.679688 L 15.441406 -125.679688 Z M 15.441406 0 "/></g></g></g><g fill="#ffffff" fill-opacity="1"><g transform="translate(113.709887, 282.05211)"><g><path d="M 92.644531 -18.132812 L 33.574219 -18.132812 L 33.574219 -125.679688 L 15.441406 -125.679688 L 15.441406 0 L 92.644531 0 Z M 92.644531 -18.132812 "/></g></g></g><g fill="#ffffff" fill-opacity="1"><g transform="translate(161.572564, 324.051279)"><g><path d="M 61.402344 -125.679688 L 15.441406 -125.679688 L 15.441406 0 L 33.753906 0 L 33.753906 -41.832031 L 61.402344 -41.832031 C 88.515625 -41.832031 102.160156 -62.660156 102.160156 -83.667969 C 102.160156 -104.671875 88.515625 -125.679688 61.402344 -125.679688 Z M 61.402344 -59.789062 L 33.753906 -59.789062 L 33.753906 -107.367188 L 61.402344 -107.367188 C 76.664062 -107.367188 84.207031 -95.515625 84.207031 -83.488281 C 84.207031 -71.636719 76.664062 -59.789062 61.402344 -59.789062 Z M 61.402344 -59.789062 "/></g></g></g></svg>