<svg xmlns="http://www.w3.org/2000/svg" width="500" zoomAndPan="magnify" viewBox="0 0 375 374.999991" height="500"
     preserveAspectRatio="xMidYMid meet" version="1.0"><defs><g/></defs><g fill="#66b2ff" fill-opacity="1"><g transform="translate(91.639687, 224.520048)"><g><path d="M 7.828125 0 L 3.578125 0 L 3.578125 -35.28125 L 7.828125 -35.28125 Z M 7.828125 0 "/></g></g></g><g fill="#66b2ff" fill-opacity="1"><g transform="translate(103.051233, 224.520048)"><g><path d="M 13.53125 0.453125 C 10.15625 0.453125 7.410156 -0.648438 5.296875 -2.859375 C 3.191406 -5.066406 2.140625 -8.023438 2.140625 -11.734375 L 2.140625 -12.515625 C 2.140625 -14.984375 2.609375 -17.179688 3.546875 -19.109375 C 4.484375 -21.046875 5.796875 -22.5625 7.484375 -23.65625 C 9.179688 -24.757812 11.019531 -25.3125 13 -25.3125 C 16.226562 -25.3125 18.738281 -24.242188 20.53125 -22.109375 C 22.320312 -19.984375 23.21875 -16.9375 23.21875 -12.96875 L 23.21875 -11.203125 L 6.390625 -11.203125 C 6.441406 -8.753906 7.15625 -6.773438 8.53125 -5.265625 C 9.90625 -3.765625 11.644531 -3.015625 13.75 -3.015625 C 15.25 -3.015625 16.519531 -3.316406 17.5625 -3.921875 C 18.601562 -4.535156 19.515625 -5.347656 20.296875 -6.359375 L 22.890625 -4.34375 C 20.804688 -1.144531 17.6875 0.453125 13.53125 0.453125 Z M 13 -21.8125 C 11.28125 -21.8125 9.835938 -21.1875 8.671875 -19.9375 C 7.515625 -18.695312 6.796875 -16.953125 6.515625 -14.703125 L 18.96875 -14.703125 L 18.96875 -15.015625 C 18.84375 -17.171875 18.257812 -18.84375 17.21875 -20.03125 C 16.175781 -21.21875 14.769531 -21.8125 13 -21.8125 Z M 13 -21.8125 "/></g></g></g><g fill="#66b2ff" fill-opacity="1"><g transform="translate(127.963764, 224.520048)"><g><path d="M 2.203125 -12.625 C 2.203125 -16.5 3.097656 -19.582031 4.890625 -21.875 C 6.679688 -24.164062 9.054688 -25.3125 12.015625 -25.3125 C 15.046875 -25.3125 17.410156 -24.238281 19.109375 -22.09375 L 19.3125 -24.84375 L 23.1875 -24.84375 L 23.1875 -0.59375 C 23.1875 2.613281 22.234375 5.144531 20.328125 7 C 18.421875 8.851562 15.863281 9.78125 12.65625 9.78125 C 10.863281 9.78125 9.109375 9.394531 7.390625 8.625 C 5.679688 7.863281 4.375 6.816406 3.46875 5.484375 L 5.671875 2.9375 C 7.492188 5.1875 9.722656 6.3125 12.359375 6.3125 C 14.421875 6.3125 16.03125 5.726562 17.1875 4.5625 C 18.34375 3.40625 18.921875 1.769531 18.921875 -0.34375 L 18.921875 -2.484375 C 17.222656 -0.523438 14.90625 0.453125 11.96875 0.453125 C 9.050781 0.453125 6.691406 -0.710938 4.890625 -3.046875 C 3.097656 -5.390625 2.203125 -8.582031 2.203125 -12.625 Z M 6.46875 -12.140625 C 6.46875 -9.347656 7.039062 -7.148438 8.1875 -5.546875 C 9.34375 -3.941406 10.953125 -3.140625 13.015625 -3.140625 C 15.703125 -3.140625 17.671875 -4.359375 18.921875 -6.796875 L 18.921875 -18.140625 C 17.617188 -20.515625 15.664062 -21.703125 13.0625 -21.703125 C 11 -21.703125 9.382812 -20.894531 8.21875 -19.28125 C 7.050781 -17.675781 6.46875 -15.296875 6.46875 -12.140625 Z M 6.46875 -12.140625 "/></g></g></g><g fill="#66b2ff" fill-opacity="1"><g transform="translate(154.34579, 224.520048)"><g><path d="M 13.53125 0.453125 C 10.15625 0.453125 7.410156 -0.648438 5.296875 -2.859375 C 3.191406 -5.066406 2.140625 -8.023438 2.140625 -11.734375 L 2.140625 -12.515625 C 2.140625 -14.984375 2.609375 -17.179688 3.546875 -19.109375 C 4.484375 -21.046875 5.796875 -22.5625 7.484375 -23.65625 C 9.179688 -24.757812 11.019531 -25.3125 13 -25.3125 C 16.226562 -25.3125 18.738281 -24.242188 20.53125 -22.109375 C 22.320312 -19.984375 23.21875 -16.9375 23.21875 -12.96875 L 23.21875 -11.203125 L 6.390625 -11.203125 C 6.441406 -8.753906 7.15625 -6.773438 8.53125 -5.265625 C 9.90625 -3.765625 11.644531 -3.015625 13.75 -3.015625 C 15.25 -3.015625 16.519531 -3.316406 17.5625 -3.921875 C 18.601562 -4.535156 19.515625 -5.347656 20.296875 -6.359375 L 22.890625 -4.34375 C 20.804688 -1.144531 17.6875 0.453125 13.53125 0.453125 Z M 13 -21.8125 C 11.28125 -21.8125 9.835938 -21.1875 8.671875 -19.9375 C 7.515625 -18.695312 6.796875 -16.953125 6.515625 -14.703125 L 18.96875 -14.703125 L 18.96875 -15.015625 C 18.84375 -17.171875 18.257812 -18.84375 17.21875 -20.03125 C 16.175781 -21.21875 14.769531 -21.8125 13 -21.8125 Z M 13 -21.8125 "/></g></g></g><g fill="#66b2ff" fill-opacity="1"><g transform="translate(179.258321, 224.520048)"><g/></g></g><g fill="#66b2ff" fill-opacity="1"><g transform="translate(190.89948, 224.520048)"><g><path d="M 9.578125 -33.4375 L 20.5 -6.15625 L 31.4375 -33.4375 L 37.15625 -33.4375 L 37.15625 0 L 32.75 0 L 32.75 -13.015625 L 33.15625 -27.078125 L 22.1875 0 L 18.8125 0 L 7.859375 -27 L 8.296875 -13.015625 L 8.296875 0 L 3.875 0 L 3.875 -33.4375 Z M 9.578125 -33.4375 "/></g></g></g><g fill="#66b2ff" fill-opacity="1"><g transform="translate(231.953494, 224.520048)"><g><path d="M 13.53125 0.453125 C 10.15625 0.453125 7.410156 -0.648438 5.296875 -2.859375 C 3.191406 -5.066406 2.140625 -8.023438 2.140625 -11.734375 L 2.140625 -12.515625 C 2.140625 -14.984375 2.609375 -17.179688 3.546875 -19.109375 C 4.484375 -21.046875 5.796875 -22.5625 7.484375 -23.65625 C 9.179688 -24.757812 11.019531 -25.3125 13 -25.3125 C 16.226562 -25.3125 18.738281 -24.242188 20.53125 -22.109375 C 22.320312 -19.984375 23.21875 -16.9375 23.21875 -12.96875 L 23.21875 -11.203125 L 6.390625 -11.203125 C 6.441406 -8.753906 7.15625 -6.773438 8.53125 -5.265625 C 9.90625 -3.765625 11.644531 -3.015625 13.75 -3.015625 C 15.25 -3.015625 16.519531 -3.316406 17.5625 -3.921875 C 18.601562 -4.535156 19.515625 -5.347656 20.296875 -6.359375 L 22.890625 -4.34375 C 20.804688 -1.144531 17.6875 0.453125 13.53125 0.453125 Z M 13 -21.8125 C 11.28125 -21.8125 9.835938 -21.1875 8.671875 -19.9375 C 7.515625 -18.695312 6.796875 -16.953125 6.515625 -14.703125 L 18.96875 -14.703125 L 18.96875 -15.015625 C 18.84375 -17.171875 18.257812 -18.84375 17.21875 -20.03125 C 16.175781 -21.21875 14.769531 -21.8125 13 -21.8125 Z M 13 -21.8125 "/></g></g></g><g fill="#66b2ff" fill-opacity="1"><g transform="translate(256.866021, 224.520048)"><g><path d="M 7.234375 -24.84375 L 7.375 -21.71875 C 9.269531 -24.113281 11.75 -25.3125 14.8125 -25.3125 C 20.0625 -25.3125 22.707031 -22.347656 22.75 -16.421875 L 22.75 0 L 18.515625 0 L 18.515625 -16.4375 C 18.492188 -18.226562 18.082031 -19.550781 17.28125 -20.40625 C 16.476562 -21.269531 15.226562 -21.703125 13.53125 -21.703125 C 12.144531 -21.703125 10.929688 -21.332031 9.890625 -20.59375 C 8.859375 -19.863281 8.050781 -18.898438 7.46875 -17.703125 L 7.46875 0 L 3.21875 0 L 3.21875 -24.84375 Z M 7.234375 -24.84375 "/></g></g></g><g fill="#66b2ff" fill-opacity="1"><g transform="translate(282.811799, 224.520048)"><g><path d="M 2.1875 -12.625 C 2.1875 -16.4375 3.085938 -19.503906 4.890625 -21.828125 C 6.691406 -24.148438 9.054688 -25.3125 11.984375 -25.3125 C 14.890625 -25.3125 17.195312 -24.316406 18.90625 -22.328125 L 18.90625 -35.28125 L 23.140625 -35.28125 L 23.140625 0 L 19.25 0 L 19.03125 -2.65625 C 17.332031 -0.582031 14.96875 0.453125 11.9375 0.453125 C 9.0625 0.453125 6.71875 -0.722656 4.90625 -3.078125 C 3.09375 -5.429688 2.1875 -8.507812 2.1875 -12.3125 Z M 6.4375 -12.140625 C 6.4375 -9.328125 7.015625 -7.125 8.171875 -5.53125 C 9.335938 -3.9375 10.945312 -3.140625 13 -3.140625 C 15.695312 -3.140625 17.664062 -4.351562 18.90625 -6.78125 L 18.90625 -18.1875 C 17.632812 -20.53125 15.679688 -21.703125 13.046875 -21.703125 C 10.960938 -21.703125 9.335938 -20.894531 8.171875 -19.28125 C 7.015625 -17.675781 6.4375 -15.296875 6.4375 -12.140625 Z M 6.4375 -12.140625 "/></g></g></g><g fill="#66b2ff" fill-opacity="1"><g transform="translate(309.331594, 224.520048)"><g><path d="M 13.53125 0.453125 C 10.15625 0.453125 7.410156 -0.648438 5.296875 -2.859375 C 3.191406 -5.066406 2.140625 -8.023438 2.140625 -11.734375 L 2.140625 -12.515625 C 2.140625 -14.984375 2.609375 -17.179688 3.546875 -19.109375 C 4.484375 -21.046875 5.796875 -22.5625 7.484375 -23.65625 C 9.179688 -24.757812 11.019531 -25.3125 13 -25.3125 C 16.226562 -25.3125 18.738281 -24.242188 20.53125 -22.109375 C 22.320312 -19.984375 23.21875 -16.9375 23.21875 -12.96875 L 23.21875 -11.203125 L 6.390625 -11.203125 C 6.441406 -8.753906 7.15625 -6.773438 8.53125 -5.265625 C 9.90625 -3.765625 11.644531 -3.015625 13.75 -3.015625 C 15.25 -3.015625 16.519531 -3.316406 17.5625 -3.921875 C 18.601562 -4.535156 19.515625 -5.347656 20.296875 -6.359375 L 22.890625 -4.34375 C 20.804688 -1.144531 17.6875 0.453125 13.53125 0.453125 Z M 13 -21.8125 C 11.28125 -21.8125 9.835938 -21.1875 8.671875 -19.9375 C 7.515625 -18.695312 6.796875 -16.953125 6.515625 -14.703125 L 18.96875 -14.703125 L 18.96875 -15.015625 C 18.84375 -17.171875 18.257812 -18.84375 17.21875 -20.03125 C 16.175781 -21.21875 14.769531 -21.8125 13 -21.8125 Z M 13 -21.8125 "/></g></g></g><g fill="#66b2ff" fill-opacity="1"><g transform="translate(334.244121, 224.520048)"><g><path d="M 17.6875 -6.59375 C 17.6875 -7.738281 17.253906 -8.628906 16.390625 -9.265625 C 15.523438 -9.898438 14.015625 -10.445312 11.859375 -10.90625 C 9.710938 -11.363281 8.003906 -11.914062 6.734375 -12.5625 C 5.472656 -13.207031 4.539062 -13.972656 3.9375 -14.859375 C 3.332031 -15.742188 3.03125 -16.800781 3.03125 -18.03125 C 3.03125 -20.0625 3.890625 -21.78125 5.609375 -23.1875 C 7.335938 -24.601562 9.539062 -25.3125 12.21875 -25.3125 C 15.03125 -25.3125 17.3125 -24.582031 19.0625 -23.125 C 20.820312 -21.664062 21.703125 -19.804688 21.703125 -17.546875 L 17.4375 -17.546875 C 17.4375 -18.710938 16.941406 -19.710938 15.953125 -20.546875 C 14.960938 -21.390625 13.71875 -21.8125 12.21875 -21.8125 C 10.664062 -21.8125 9.453125 -21.472656 8.578125 -20.796875 C 7.710938 -20.128906 7.28125 -19.253906 7.28125 -18.171875 C 7.28125 -17.140625 7.6875 -16.363281 8.5 -15.84375 C 9.3125 -15.320312 10.773438 -14.820312 12.890625 -14.34375 C 15.015625 -13.875 16.734375 -13.3125 18.046875 -12.65625 C 19.367188 -12 20.347656 -11.207031 20.984375 -10.28125 C 21.617188 -9.351562 21.9375 -8.222656 21.9375 -6.890625 C 21.9375 -4.671875 21.046875 -2.890625 19.265625 -1.546875 C 17.492188 -0.210938 15.191406 0.453125 12.359375 0.453125 C 10.367188 0.453125 8.609375 0.101562 7.078125 -0.59375 C 5.546875 -1.300781 4.347656 -2.285156 3.484375 -3.546875 C 2.617188 -4.804688 2.1875 -6.171875 2.1875 -7.640625 L 6.4375 -7.640625 C 6.507812 -6.222656 7.078125 -5.097656 8.140625 -4.265625 C 9.203125 -3.429688 10.609375 -3.015625 12.359375 -3.015625 C 13.960938 -3.015625 15.25 -3.335938 16.21875 -3.984375 C 17.195312 -4.628906 17.6875 -5.5 17.6875 -6.59375 Z M 17.6875 -6.59375 "/></g></g></g><g fill="#444444" fill-opacity="1"><g transform="translate(48.982873, 212.763358)"><g><path d="M -11.8125 -23.9375 C -12.113281 -24.320312 -12.414062 -24.6875 -12.71875 -25.03125 C -13.03125 -25.382812 -13.320312 -25.753906 -13.59375 -26.140625 C -13.914062 -26.578125 -14.21875 -27.066406 -14.5 -27.609375 C -14.78125 -28.160156 -14.976562 -28.726562 -15.09375 -29.3125 C -15.207031 -29.894531 -15.21875 -30.460938 -15.125 -31.015625 C -15.039062 -31.566406 -14.769531 -32.085938 -14.3125 -32.578125 C -13.625 -33.316406 -12.753906 -33.796875 -11.703125 -34.015625 C -10.648438 -34.234375 -9.632812 -34.390625 -8.65625 -34.484375 C -7.695312 -34.566406 -6.738281 -34.613281 -5.78125 -34.625 C -4.820312 -34.632812 -3.851562 -34.6875 -2.875 -34.78125 C -2.363281 -34.832031 -1.847656 -34.867188 -1.328125 -34.890625 C -0.804688 -34.921875 -0.316406 -34.890625 0.140625 -34.796875 C 0.609375 -34.703125 1.050781 -34.523438 1.46875 -34.265625 C 1.894531 -34.015625 2.273438 -33.644531 2.609375 -33.15625 C 2.960938 -32.65625 3.191406 -32.09375 3.296875 -31.46875 C 3.398438 -30.851562 3.488281 -30.25 3.5625 -29.65625 C 3.96875 -26.320312 3.945312 -22.960938 3.5 -19.578125 C 3.320312 -18.316406 3.023438 -17.070312 2.609375 -15.84375 C 2.191406 -14.613281 1.515625 -13.566406 0.578125 -12.703125 C 1.710938 -11.347656 2.867188 -10.039062 4.046875 -8.78125 C 5.222656 -7.519531 6.445312 -6.28125 7.71875 -5.0625 C 8.15625 -4.644531 8.347656 -4.195312 8.296875 -3.71875 C 8.242188 -3.238281 8.0625 -2.832031 7.75 -2.5 C 7.445312 -2.175781 7.050781 -1.972656 6.5625 -1.890625 C 6.082031 -1.804688 5.625 -1.976562 5.1875 -2.40625 C 2.425781 -5.082031 -0.148438 -7.890625 -2.546875 -10.828125 C -4.941406 -13.773438 -7.207031 -16.875 -9.34375 -20.125 C -9.632812 -20.539062 -9.90625 -20.957031 -10.15625 -21.375 C -10.414062 -21.800781 -10.695312 -22.234375 -11 -22.671875 C -11.113281 -22.859375 -11.21875 -23.035156 -11.3125 -23.203125 C -11.414062 -23.367188 -11.523438 -23.519531 -11.640625 -23.65625 Z M -11.34375 -29.421875 C -11.007812 -28.835938 -10.601562 -28.242188 -10.125 -27.640625 C -9.945312 -27.367188 -9.820312 -27.195312 -9.75 -27.125 C -9.6875 -27.050781 -9.640625 -26.984375 -9.609375 -26.921875 L -9.0625 -26.296875 C -8.507812 -25.566406 -7.988281 -24.796875 -7.5 -23.984375 C -6.75 -22.867188 -6.003906 -21.75 -5.265625 -20.625 C -4.535156 -19.507812 -3.769531 -18.410156 -2.96875 -17.328125 C -2.757812 -17.023438 -2.550781 -16.71875 -2.34375 -16.40625 C -2.144531 -16.101562 -1.929688 -15.820312 -1.703125 -15.5625 C -1.484375 -15.800781 -1.34375 -15.984375 -1.28125 -16.109375 C -1.21875 -16.242188 -1.148438 -16.367188 -1.078125 -16.484375 C -0.972656 -16.679688 -0.90625 -16.835938 -0.875 -16.953125 C -0.539062 -17.890625 -0.3125 -18.753906 -0.1875 -19.546875 C -0.0625 -20.347656 0.03125 -21.132812 0.09375 -21.90625 C 0.226562 -23.644531 0.242188 -25.359375 0.140625 -27.046875 C 0.0976562 -27.421875 0.0664062 -27.769531 0.046875 -28.09375 C 0.0234375 -28.425781 -0.00390625 -28.773438 -0.046875 -29.140625 C -0.0664062 -29.304688 -0.0820312 -29.453125 -0.09375 -29.578125 C -0.101562 -29.710938 -0.125 -29.863281 -0.15625 -30.03125 C -0.21875 -30.414062 -0.285156 -30.734375 -0.359375 -30.984375 C -0.472656 -31.160156 -0.59375 -31.265625 -0.71875 -31.296875 C -1.21875 -31.285156 -1.578125 -31.269531 -1.796875 -31.25 C -2.785156 -31.15625 -3.742188 -31.082031 -4.671875 -31.03125 C -5.609375 -30.976562 -6.585938 -30.929688 -7.609375 -30.890625 C -8.097656 -30.867188 -8.585938 -30.835938 -9.078125 -30.796875 C -9.578125 -30.753906 -10.070312 -30.664062 -10.5625 -30.53125 C -10.65625 -30.519531 -10.753906 -30.5 -10.859375 -30.46875 C -10.972656 -30.4375 -11.066406 -30.398438 -11.140625 -30.359375 C -11.335938 -30.265625 -11.445312 -30.203125 -11.46875 -30.171875 C -11.5 -30.148438 -11.523438 -30.128906 -11.546875 -30.109375 C -11.535156 -30.003906 -11.515625 -29.910156 -11.484375 -29.828125 C -11.453125 -29.742188 -11.4375 -29.664062 -11.4375 -29.59375 Z M -11.34375 -29.421875 "/></g></g></g><g fill="#444444" fill-opacity="1"><g transform="translate(65.006379, 203.053198)"><g><path d="M -7.375 -17.390625 C -7.644531 -17.898438 -7.6875 -18.382812 -7.5 -18.84375 C -7.3125 -19.300781 -7.019531 -19.648438 -6.625 -19.890625 C -6.226562 -20.128906 -5.800781 -20.210938 -5.34375 -20.140625 C -4.894531 -20.078125 -4.535156 -19.785156 -4.265625 -19.265625 C -4.171875 -19.109375 -4.078125 -18.941406 -3.984375 -18.765625 C -3.890625 -18.597656 -3.796875 -18.429688 -3.703125 -18.265625 C -3.117188 -19.203125 -2.457031 -20.097656 -1.71875 -20.953125 C -0.976562 -21.816406 -0.164062 -22.566406 0.71875 -23.203125 C 1.613281 -23.847656 2.566406 -24.328125 3.578125 -24.640625 C 4.585938 -24.953125 5.644531 -25.015625 6.75 -24.828125 C 7.332031 -24.703125 7.722656 -24.429688 7.921875 -24.015625 C 8.117188 -23.597656 8.160156 -23.171875 8.046875 -22.734375 C 7.929688 -22.296875 7.6875 -21.914062 7.3125 -21.59375 C 6.9375 -21.28125 6.457031 -21.160156 5.875 -21.234375 C 5.445312 -21.296875 5.023438 -21.269531 4.609375 -21.15625 C 4.191406 -21.050781 3.78125 -20.867188 3.375 -20.609375 C 2.976562 -20.347656 2.601562 -20.050781 2.25 -19.71875 C 1.894531 -19.394531 1.566406 -19.070312 1.265625 -18.75 C 0.140625 -17.46875 -0.800781 -16.09375 -1.5625 -14.625 C -0.726562 -13.363281 0.128906 -12.125 1.015625 -10.90625 C 1.765625 -9.90625 2.523438 -8.859375 3.296875 -7.765625 C 4.066406 -6.679688 4.941406 -5.734375 5.921875 -4.921875 C 6.367188 -4.554688 6.578125 -4.140625 6.546875 -3.671875 C 6.523438 -3.210938 6.351562 -2.816406 6.03125 -2.484375 C 5.707031 -2.148438 5.296875 -1.9375 4.796875 -1.84375 C 4.304688 -1.757812 3.84375 -1.90625 3.40625 -2.28125 C 2.832031 -2.75 2.3125 -3.269531 1.84375 -3.84375 C 1.382812 -4.425781 0.925781 -5.015625 0.46875 -5.609375 C 0.0507812 -6.179688 -0.375 -6.753906 -0.8125 -7.328125 C -1.257812 -7.898438 -1.6875 -8.46875 -2.09375 -9.03125 C -3.09375 -10.363281 -4.03125 -11.722656 -4.90625 -13.109375 C -5.789062 -14.492188 -6.613281 -15.921875 -7.375 -17.390625 Z M -7.375 -17.390625 "/></g></g></g><g fill="#444444" fill-opacity="1"><g transform="translate(81.461891, 193.081244)"><g><path d="M 1.609375 -1.515625 C 1.066406 -2.890625 0.5625 -4.269531 0.09375 -5.65625 C -0.375 -7.050781 -0.921875 -8.410156 -1.546875 -9.734375 C -2.191406 -11.035156 -2.910156 -12.265625 -3.703125 -13.421875 C -4.492188 -14.578125 -5.15625 -15.832031 -5.6875 -17.1875 C -5.875 -17.632812 -5.816406 -18.09375 -5.515625 -18.5625 C -5.210938 -19.039062 -4.847656 -19.335938 -4.421875 -19.453125 C -3.898438 -19.585938 -3.441406 -19.519531 -3.046875 -19.25 C -2.648438 -18.988281 -2.351562 -18.632812 -2.15625 -18.1875 C -1.894531 -17.507812 -1.566406 -16.863281 -1.171875 -16.25 C -0.785156 -15.632812 -0.382812 -15.019531 0.03125 -14.40625 C 0.757812 -13.195312 1.40625 -11.941406 1.96875 -10.640625 C 2.582031 -9.296875 3.128906 -7.945312 3.609375 -6.59375 C 4.085938 -5.238281 4.59375 -3.882812 5.125 -2.53125 C 5.300781 -2.050781 5.242188 -1.582031 4.953125 -1.125 C 4.660156 -0.664062 4.300781 -0.375 3.875 -0.25 C 3.34375 -0.101562 2.875 -0.160156 2.46875 -0.421875 C 2.0625 -0.679688 1.773438 -1.046875 1.609375 -1.515625 Z M -7.453125 -20.734375 C -7.671875 -20.660156 -7.90625 -20.628906 -8.15625 -20.640625 C -8.414062 -20.648438 -8.632812 -20.71875 -8.8125 -20.84375 C -9.03125 -21.019531 -9.210938 -21.164062 -9.359375 -21.28125 C -9.503906 -21.40625 -9.640625 -21.570312 -9.765625 -21.78125 C -9.910156 -22.019531 -10.019531 -22.285156 -10.09375 -22.578125 C -10.257812 -23.109375 -10.25 -23.570312 -10.0625 -23.96875 C -10.050781 -24.195312 -9.984375 -24.40625 -9.859375 -24.59375 C -9.671875 -24.945312 -9.398438 -25.238281 -9.046875 -25.46875 C -8.691406 -25.707031 -8.304688 -25.8125 -7.890625 -25.78125 C -7.691406 -25.757812 -7.492188 -25.722656 -7.296875 -25.671875 C -7.097656 -25.628906 -6.898438 -25.546875 -6.703125 -25.421875 C -6.578125 -25.316406 -6.429688 -25.207031 -6.265625 -25.09375 C -6.109375 -24.988281 -5.992188 -24.84375 -5.921875 -24.65625 C -5.835938 -24.457031 -5.757812 -24.269531 -5.6875 -24.09375 C -5.613281 -23.914062 -5.59375 -23.734375 -5.625 -23.546875 C -5.632812 -23.285156 -5.65625 -23.09375 -5.6875 -22.96875 C -5.726562 -22.84375 -5.800781 -22.660156 -5.90625 -22.421875 C -5.9375 -22.253906 -6.046875 -22.082031 -6.234375 -21.90625 C -6.597656 -21.25 -7.003906 -20.859375 -7.453125 -20.734375 Z M -7.453125 -20.734375 "/></g></g></g><g fill="#444444" fill-opacity="1"><g transform="translate(90.494749, 187.60738)"><g><path d="M 0.90625 -8.328125 C 0.28125 -8.890625 -0.328125 -9.46875 -0.921875 -10.0625 C -1.515625 -10.664062 -2.125 -11.25 -2.75 -11.8125 C -3.71875 -12.757812 -4.835938 -13.628906 -6.109375 -14.421875 C -6.734375 -14.804688 -7.367188 -15.207031 -8.015625 -15.625 C -8.671875 -16.039062 -9.253906 -16.523438 -9.765625 -17.078125 C -10.160156 -17.515625 -10.320312 -17.972656 -10.25 -18.453125 C -10.175781 -18.941406 -9.984375 -19.351562 -9.671875 -19.6875 C -9.367188 -20.03125 -8.988281 -20.234375 -8.53125 -20.296875 C -8.070312 -20.359375 -7.640625 -20.171875 -7.234375 -19.734375 C -6.722656 -19.171875 -6.148438 -18.707031 -5.515625 -18.34375 C -4.878906 -17.988281 -4.242188 -17.601562 -3.609375 -17.1875 C -2.953125 -16.769531 -2.328125 -16.3125 -1.734375 -15.8125 C -1.148438 -15.3125 -0.570312 -14.800781 0 -14.28125 C 0.625 -13.726562 1.238281 -13.140625 1.84375 -12.515625 C 2.445312 -11.898438 3.070312 -11.320312 3.71875 -10.78125 C 3.945312 -10.570312 4.179688 -10.367188 4.421875 -10.171875 C 4.671875 -9.984375 4.929688 -9.796875 5.203125 -9.609375 C 4.992188 -10.523438 4.796875 -11.304688 4.609375 -11.953125 C 4.429688 -12.609375 4.289062 -13.265625 4.1875 -13.921875 C 4 -14.878906 3.800781 -15.820312 3.59375 -16.75 C 3.382812 -17.6875 3.132812 -18.625 2.84375 -19.5625 C 2.601562 -20.445312 2.300781 -21.304688 1.9375 -22.140625 C 1.570312 -22.984375 1.265625 -23.847656 1.015625 -24.734375 C 0.859375 -25.285156 0.925781 -25.753906 1.21875 -26.140625 C 1.519531 -26.535156 1.882812 -26.789062 2.3125 -26.90625 C 2.75 -27.03125 3.191406 -27.003906 3.640625 -26.828125 C 4.085938 -26.648438 4.382812 -26.285156 4.53125 -25.734375 C 4.800781 -24.710938 5.144531 -23.726562 5.5625 -22.78125 C 5.988281 -21.84375 6.328125 -20.878906 6.578125 -19.890625 C 6.859375 -18.910156 7.097656 -17.914062 7.296875 -16.90625 C 7.492188 -15.894531 7.703125 -14.882812 7.921875 -13.875 C 8.085938 -13.175781 8.265625 -12.460938 8.453125 -11.734375 C 8.648438 -11.015625 8.796875 -10.289062 8.890625 -9.5625 C 8.984375 -8.84375 9 -8.125 8.9375 -7.40625 C 8.882812 -6.6875 8.675781 -5.992188 8.3125 -5.328125 C 8 -4.734375 7.5625 -4.425781 7 -4.40625 C 6.4375 -4.382812 5.921875 -4.535156 5.453125 -4.859375 C 4.671875 -5.410156 3.894531 -5.976562 3.125 -6.5625 C 2.363281 -7.144531 1.625 -7.734375 0.90625 -8.328125 Z M 0.90625 -8.328125 "/></g></g></g><g fill="#444444" fill-opacity="1"><g transform="translate(106.086249, 178.159013)"><g><path d="M 1.609375 -1.515625 C 1.066406 -2.890625 0.5625 -4.269531 0.09375 -5.65625 C -0.375 -7.050781 -0.921875 -8.410156 -1.546875 -9.734375 C -2.191406 -11.035156 -2.910156 -12.265625 -3.703125 -13.421875 C -4.492188 -14.578125 -5.15625 -15.832031 -5.6875 -17.1875 C -5.875 -17.632812 -5.816406 -18.09375 -5.515625 -18.5625 C -5.210938 -19.039062 -4.847656 -19.335938 -4.421875 -19.453125 C -3.898438 -19.585938 -3.441406 -19.519531 -3.046875 -19.25 C -2.648438 -18.988281 -2.351562 -18.632812 -2.15625 -18.1875 C -1.894531 -17.507812 -1.566406 -16.863281 -1.171875 -16.25 C -0.785156 -15.632812 -0.382812 -15.019531 0.03125 -14.40625 C 0.757812 -13.195312 1.40625 -11.941406 1.96875 -10.640625 C 2.582031 -9.296875 3.128906 -7.945312 3.609375 -6.59375 C 4.085938 -5.238281 4.59375 -3.882812 5.125 -2.53125 C 5.300781 -2.050781 5.242188 -1.582031 4.953125 -1.125 C 4.660156 -0.664062 4.300781 -0.375 3.875 -0.25 C 3.34375 -0.101562 2.875 -0.160156 2.46875 -0.421875 C 2.0625 -0.679688 1.773438 -1.046875 1.609375 -1.515625 Z M -7.453125 -20.734375 C -7.671875 -20.660156 -7.90625 -20.628906 -8.15625 -20.640625 C -8.414062 -20.648438 -8.632812 -20.71875 -8.8125 -20.84375 C -9.03125 -21.019531 -9.210938 -21.164062 -9.359375 -21.28125 C -9.503906 -21.40625 -9.640625 -21.570312 -9.765625 -21.78125 C -9.910156 -22.019531 -10.019531 -22.285156 -10.09375 -22.578125 C -10.257812 -23.109375 -10.25 -23.570312 -10.0625 -23.96875 C -10.050781 -24.195312 -9.984375 -24.40625 -9.859375 -24.59375 C -9.671875 -24.945312 -9.398438 -25.238281 -9.046875 -25.46875 C -8.691406 -25.707031 -8.304688 -25.8125 -7.890625 -25.78125 C -7.691406 -25.757812 -7.492188 -25.722656 -7.296875 -25.671875 C -7.097656 -25.628906 -6.898438 -25.546875 -6.703125 -25.421875 C -6.578125 -25.316406 -6.429688 -25.207031 -6.265625 -25.09375 C -6.109375 -24.988281 -5.992188 -24.84375 -5.921875 -24.65625 C -5.835938 -24.457031 -5.757812 -24.269531 -5.6875 -24.09375 C -5.613281 -23.914062 -5.59375 -23.734375 -5.625 -23.546875 C -5.632812 -23.285156 -5.65625 -23.09375 -5.6875 -22.96875 C -5.726562 -22.84375 -5.800781 -22.660156 -5.90625 -22.421875 C -5.9375 -22.253906 -6.046875 -22.082031 -6.234375 -21.90625 C -6.597656 -21.25 -7.003906 -20.859375 -7.453125 -20.734375 Z M -7.453125 -20.734375 "/></g></g></g><g fill="#444444" fill-opacity="1"><g transform="translate(74.33977, 250.364563)"><g><path d="M 14.96875 -26.359375 C 15.15625 -25.691406 15.296875 -24.988281 15.390625 -24.25 C 15.484375 -23.507812 15.585938 -22.78125 15.703125 -22.0625 C 15.828125 -21.34375 15.988281 -20.640625 16.1875 -19.953125 C 16.382812 -19.265625 16.671875 -18.613281 17.046875 -18 C 17.347656 -17.476562 17.414062 -16.992188 17.25 -16.546875 C 17.082031 -16.109375 16.796875 -15.773438 16.390625 -15.546875 C 15.992188 -15.316406 15.550781 -15.234375 15.0625 -15.296875 C 14.570312 -15.359375 14.175781 -15.648438 13.875 -16.171875 C 13.476562 -16.804688 13.160156 -17.476562 12.921875 -18.1875 C 12.691406 -18.894531 12.507812 -19.609375 12.375 -20.328125 C 12.238281 -21.046875 12.113281 -21.769531 12 -22.5 C 11.894531 -23.238281 11.753906 -23.957031 11.578125 -24.65625 C 11.390625 -25.488281 11.15625 -26.332031 10.875 -27.1875 C 10.601562 -28.039062 10.253906 -28.835938 9.828125 -29.578125 C 9.429688 -28.785156 9.101562 -27.953125 8.84375 -27.078125 C 8.582031 -26.203125 8.253906 -25.367188 7.859375 -24.578125 C 7.609375 -24.054688 7.304688 -23.523438 6.953125 -22.984375 C 6.609375 -22.453125 6.265625 -21.910156 5.921875 -21.359375 C 5.585938 -20.804688 5.296875 -20.238281 5.046875 -19.65625 C 4.804688 -19.070312 4.65625 -18.472656 4.59375 -17.859375 C 4.53125 -17.335938 4.34375 -16.898438 4.03125 -16.546875 C 3.726562 -16.203125 3.300781 -16.03125 2.75 -16.03125 C 2.289062 -16.03125 1.863281 -16.203125 1.46875 -16.546875 C 1.070312 -16.898438 0.90625 -17.335938 0.96875 -17.859375 C 1.03125 -18.691406 1.195312 -19.46875 1.46875 -20.1875 C 1.75 -20.90625 2.070312 -21.609375 2.4375 -22.296875 C 2.800781 -22.984375 3.1875 -23.664062 3.59375 -24.34375 C 4.007812 -25.019531 4.390625 -25.722656 4.734375 -26.453125 C 5.003906 -27.097656 5.257812 -27.75 5.5 -28.40625 C 5.75 -29.0625 5.992188 -29.703125 6.234375 -30.328125 C 6.484375 -30.960938 6.773438 -31.582031 7.109375 -32.1875 C 7.453125 -32.800781 7.851562 -33.382812 8.3125 -33.9375 C 8.644531 -34.332031 9.070312 -34.507812 9.59375 -34.46875 C 10.113281 -34.425781 10.5625 -34.25 10.9375 -33.9375 C 12.03125 -32.988281 12.882812 -31.832031 13.5 -30.46875 C 14.113281 -29.113281 14.601562 -27.742188 14.96875 -26.359375 Z M 14.96875 -26.359375 "/></g></g></g></svg>