<svg xmlns="http://www.w3.org/2000/svg" width="500" zoomAndPan="magnify" viewBox="0 0 375 374.999991" height="500"
     preserveAspectRatio="xMidYMid meet" version="1.0"><defs><g/></defs><g fill="#000000" fill-opacity="1"><g transform="translate(113.662168, 194.862118)"><g><path d="M 15.441406 0 L 33.574219 0 L 33.574219 -88.511719 L 66.429688 -39.675781 L 76.660156 -39.675781 L 109.515625 -88.511719 L 109.515625 0 L 127.46875 0 L 127.46875 -125.675781 L 113.105469 -125.675781 L 71.632812 -64.632812 L 30.160156 -125.675781 L 15.441406 -125.675781 Z M 15.441406 0 "/></g></g></g><g fill="#000000" fill-opacity="1"><g transform="translate(113.711175, 282.101744)"><g><path d="M 92.640625 -18.132812 L 33.574219 -18.132812 L 33.574219 -125.675781 L 15.441406 -125.675781 L 15.441406 0 L 92.640625 0 Z M 92.640625 -18.132812 "/></g></g></g><g fill="#000000" fill-opacity="1"><g transform="translate(161.583481, 324.10092)"><g><path d="M 61.402344 -125.675781 L 15.441406 -125.675781 L 15.441406 0 L 33.753906 0 L 33.753906 -41.832031 L 61.402344 -41.832031 C 88.511719 -41.832031 102.15625 -62.65625 102.15625 -83.664062 C 102.15625 -104.667969 88.511719 -125.675781 61.402344 -125.675781 Z M 61.402344 -59.785156 L 33.753906 -59.785156 L 33.753906 -107.363281 L 61.402344 -107.363281 C 76.660156 -107.363281 84.203125 -95.511719 84.203125 -83.484375 C 84.203125 -71.632812 76.660156 -59.785156 61.402344 -59.785156 Z M 61.402344 -59.785156 "/></g></g></g></svg>