<svg xmlns="http://www.w3.org/2000/svg" width="1500" zoomAndPan="magnify" viewBox="0 0 1125 374.999991" height="500"
     preserveAspectRatio="xMidYMid meet" version="1.0"><defs><g/></defs><g fill="#66b2ff" fill-opacity="1"><g transform="translate(204.703869, 280.518398)"><g><path d="M 26.65625 0 L 12.203125 0 L 12.203125 -120.09375 L 26.65625 -120.09375 Z M 26.65625 0 "/></g></g></g><g fill="#66b2ff" fill-opacity="1"><g transform="translate(243.563018, 280.518398)"><g><path d="M 46.046875 1.5625 C 34.578125 1.5625 25.242188 -2.203125 18.046875 -9.734375 C 10.859375 -17.265625 7.265625 -27.335938 7.265625 -39.953125 L 7.265625 -42.609375 C 7.265625 -51.003906 8.867188 -58.5 12.078125 -65.09375 C 15.285156 -71.6875 19.769531 -76.84375 25.53125 -80.5625 C 31.289062 -84.289062 37.53125 -86.15625 44.25 -86.15625 C 55.25 -86.15625 63.796875 -82.53125 69.890625 -75.28125 C 75.992188 -68.039062 79.046875 -57.671875 79.046875 -44.171875 L 79.046875 -38.15625 L 21.734375 -38.15625 C 21.941406 -29.8125 24.378906 -23.070312 29.046875 -17.9375 C 33.710938 -12.8125 39.640625 -10.25 46.828125 -10.25 C 51.941406 -10.25 56.269531 -11.289062 59.8125 -13.375 C 63.351562 -15.457031 66.453125 -18.21875 69.109375 -21.65625 L 77.953125 -14.78125 C 70.859375 -3.882812 60.222656 1.5625 46.046875 1.5625 Z M 44.25 -74.28125 C 38.414062 -74.28125 33.515625 -72.15625 29.546875 -67.90625 C 25.585938 -63.65625 23.140625 -57.703125 22.203125 -50.046875 L 64.578125 -50.046875 L 64.578125 -51.140625 C 64.160156 -58.484375 62.179688 -64.175781 58.640625 -68.21875 C 55.097656 -72.257812 50.300781 -74.28125 44.25 -74.28125 Z M 44.25 -74.28125 "/></g></g></g><g fill="#66b2ff" fill-opacity="1"><g transform="translate(328.396371, 280.518398)"><g><path d="M 7.5 -43 C 7.5 -56.1875 10.546875 -66.675781 16.640625 -74.46875 C 22.742188 -82.257812 30.828125 -86.15625 40.890625 -86.15625 C 51.210938 -86.15625 59.265625 -82.507812 65.046875 -75.21875 L 65.75 -84.59375 L 78.96875 -84.59375 L 78.96875 -2.03125 C 78.96875 8.914062 75.722656 17.539062 69.234375 23.84375 C 62.742188 30.15625 54.023438 33.3125 43.078125 33.3125 C 36.984375 33.3125 31.015625 32.003906 25.171875 29.390625 C 19.335938 26.785156 14.882812 23.21875 11.8125 18.6875 L 19.3125 10.015625 C 25.507812 17.671875 33.09375 21.5 42.0625 21.5 C 49.101562 21.5 54.585938 19.515625 58.515625 15.546875 C 62.453125 11.585938 64.421875 6.015625 64.421875 -1.171875 L 64.421875 -8.4375 C 58.640625 -1.769531 50.742188 1.5625 40.734375 1.5625 C 30.828125 1.5625 22.8125 -2.421875 16.6875 -10.390625 C 10.5625 -18.367188 7.5 -29.238281 7.5 -43 Z M 22.046875 -41.359375 C 22.046875 -31.816406 24 -24.320312 27.90625 -18.875 C 31.820312 -13.4375 37.296875 -10.71875 44.328125 -10.71875 C 53.453125 -10.71875 60.148438 -14.859375 64.421875 -23.140625 L 64.421875 -61.765625 C 59.992188 -69.847656 53.347656 -73.890625 44.484375 -73.890625 C 37.453125 -73.890625 31.953125 -71.148438 27.984375 -65.671875 C 24.023438 -60.203125 22.046875 -52.097656 22.046875 -41.359375 Z M 22.046875 -41.359375 "/></g></g></g><g fill="#66b2ff" fill-opacity="1"><g transform="translate(418.233718, 280.518398)"><g><path d="M 46.046875 1.5625 C 34.578125 1.5625 25.242188 -2.203125 18.046875 -9.734375 C 10.859375 -17.265625 7.265625 -27.335938 7.265625 -39.953125 L 7.265625 -42.609375 C 7.265625 -51.003906 8.867188 -58.5 12.078125 -65.09375 C 15.285156 -71.6875 19.769531 -76.84375 25.53125 -80.5625 C 31.289062 -84.289062 37.53125 -86.15625 44.25 -86.15625 C 55.25 -86.15625 63.796875 -82.53125 69.890625 -75.28125 C 75.992188 -68.039062 79.046875 -57.671875 79.046875 -44.171875 L 79.046875 -38.15625 L 21.734375 -38.15625 C 21.941406 -29.8125 24.378906 -23.070312 29.046875 -17.9375 C 33.710938 -12.8125 39.640625 -10.25 46.828125 -10.25 C 51.941406 -10.25 56.269531 -11.289062 59.8125 -13.375 C 63.351562 -15.457031 66.453125 -18.21875 69.109375 -21.65625 L 77.953125 -14.78125 C 70.859375 -3.882812 60.222656 1.5625 46.046875 1.5625 Z M 44.25 -74.28125 C 38.414062 -74.28125 33.515625 -72.15625 29.546875 -67.90625 C 25.585938 -63.65625 23.140625 -57.703125 22.203125 -50.046875 L 64.578125 -50.046875 L 64.578125 -51.140625 C 64.160156 -58.484375 62.179688 -64.175781 58.640625 -68.21875 C 55.097656 -72.257812 50.300781 -74.28125 44.25 -74.28125 Z M 44.25 -74.28125 "/></g></g></g><g fill="#66b2ff" fill-opacity="1"><g transform="translate(503.067072, 280.518398)"><g/></g></g><g fill="#66b2ff" fill-opacity="1"><g transform="translate(542.708109, 280.518398)"><g><path d="M 32.609375 -113.84375 L 69.8125 -20.953125 L 107.03125 -113.84375 L 126.5 -113.84375 L 126.5 0 L 111.5 0 L 111.5 -44.328125 L 112.90625 -92.1875 L 75.53125 0 L 64.03125 0 L 26.734375 -91.953125 L 28.21875 -44.328125 L 28.21875 0 L 13.21875 0 L 13.21875 -113.84375 Z M 32.609375 -113.84375 "/></g></g></g><g fill="#66b2ff" fill-opacity="1"><g transform="translate(682.507219, 280.518398)"><g><path d="M 46.046875 1.5625 C 34.578125 1.5625 25.242188 -2.203125 18.046875 -9.734375 C 10.859375 -17.265625 7.265625 -27.335938 7.265625 -39.953125 L 7.265625 -42.609375 C 7.265625 -51.003906 8.867188 -58.5 12.078125 -65.09375 C 15.285156 -71.6875 19.769531 -76.84375 25.53125 -80.5625 C 31.289062 -84.289062 37.53125 -86.15625 44.25 -86.15625 C 55.25 -86.15625 63.796875 -82.53125 69.890625 -75.28125 C 75.992188 -68.039062 79.046875 -57.671875 79.046875 -44.171875 L 79.046875 -38.15625 L 21.734375 -38.15625 C 21.941406 -29.8125 24.378906 -23.070312 29.046875 -17.9375 C 33.710938 -12.8125 39.640625 -10.25 46.828125 -10.25 C 51.941406 -10.25 56.269531 -11.289062 59.8125 -13.375 C 63.351562 -15.457031 66.453125 -18.21875 69.109375 -21.65625 L 77.953125 -14.78125 C 70.859375 -3.882812 60.222656 1.5625 46.046875 1.5625 Z M 44.25 -74.28125 C 38.414062 -74.28125 33.515625 -72.15625 29.546875 -67.90625 C 25.585938 -63.65625 23.140625 -57.703125 22.203125 -50.046875 L 64.578125 -50.046875 L 64.578125 -51.140625 C 64.160156 -58.484375 62.179688 -64.175781 58.640625 -68.21875 C 55.097656 -72.257812 50.300781 -74.28125 44.25 -74.28125 Z M 44.25 -74.28125 "/></g></g></g><g fill="#66b2ff" fill-opacity="1"><g transform="translate(767.340557, 280.518398)"><g><path d="M 24.625 -84.59375 L 25.09375 -73.96875 C 31.5625 -82.09375 40.007812 -86.15625 50.4375 -86.15625 C 68.3125 -86.15625 77.328125 -76.070312 77.484375 -55.90625 L 77.484375 0 L 63.015625 0 L 63.015625 -55.984375 C 62.960938 -62.078125 61.566406 -66.582031 58.828125 -69.5 C 56.097656 -72.425781 51.835938 -73.890625 46.046875 -73.890625 C 41.359375 -73.890625 37.238281 -72.632812 33.6875 -70.125 C 30.144531 -67.625 27.382812 -64.34375 25.40625 -60.28125 L 25.40625 0 L 10.953125 0 L 10.953125 -84.59375 Z M 24.625 -84.59375 "/></g></g></g><g fill="#66b2ff" fill-opacity="1"><g transform="translate(855.692373, 280.518398)"><g><path d="M 7.421875 -43 C 7.421875 -55.976562 10.492188 -66.414062 16.640625 -74.3125 C 22.796875 -82.207031 30.851562 -86.15625 40.8125 -86.15625 C 50.71875 -86.15625 58.5625 -82.769531 64.34375 -76 L 64.34375 -120.09375 L 78.8125 -120.09375 L 78.8125 0 L 65.515625 0 L 64.8125 -9.0625 C 59.03125 -1.976562 50.976562 1.5625 40.65625 1.5625 C 30.851562 1.5625 22.863281 -2.445312 16.6875 -10.46875 C 10.507812 -18.5 7.421875 -28.976562 7.421875 -41.90625 Z M 21.890625 -41.359375 C 21.890625 -31.765625 23.867188 -24.257812 27.828125 -18.84375 C 31.796875 -13.425781 37.269531 -10.71875 44.25 -10.71875 C 53.425781 -10.71875 60.125 -14.832031 64.34375 -23.0625 L 64.34375 -61.921875 C 60.019531 -69.898438 53.375 -73.890625 44.40625 -73.890625 C 37.320312 -73.890625 31.796875 -71.148438 27.828125 -65.671875 C 23.867188 -60.203125 21.890625 -52.097656 21.890625 -41.359375 Z M 21.890625 -41.359375 "/></g></g></g><g fill="#66b2ff" fill-opacity="1"><g transform="translate(945.998859, 280.518398)"><g><path d="M 46.046875 1.5625 C 34.578125 1.5625 25.242188 -2.203125 18.046875 -9.734375 C 10.859375 -17.265625 7.265625 -27.335938 7.265625 -39.953125 L 7.265625 -42.609375 C 7.265625 -51.003906 8.867188 -58.5 12.078125 -65.09375 C 15.285156 -71.6875 19.769531 -76.84375 25.53125 -80.5625 C 31.289062 -84.289062 37.53125 -86.15625 44.25 -86.15625 C 55.25 -86.15625 63.796875 -82.53125 69.890625 -75.28125 C 75.992188 -68.039062 79.046875 -57.671875 79.046875 -44.171875 L 79.046875 -38.15625 L 21.734375 -38.15625 C 21.941406 -29.8125 24.378906 -23.070312 29.046875 -17.9375 C 33.710938 -12.8125 39.640625 -10.25 46.828125 -10.25 C 51.941406 -10.25 56.269531 -11.289062 59.8125 -13.375 C 63.351562 -15.457031 66.453125 -18.21875 69.109375 -21.65625 L 77.953125 -14.78125 C 70.859375 -3.882812 60.222656 1.5625 46.046875 1.5625 Z M 44.25 -74.28125 C 38.414062 -74.28125 33.515625 -72.15625 29.546875 -67.90625 C 25.585938 -63.65625 23.140625 -57.703125 22.203125 -50.046875 L 64.578125 -50.046875 L 64.578125 -51.140625 C 64.160156 -58.484375 62.179688 -64.175781 58.640625 -68.21875 C 55.097656 -72.257812 50.300781 -74.28125 44.25 -74.28125 Z M 44.25 -74.28125 "/></g></g></g><g fill="#66b2ff" fill-opacity="1"><g transform="translate(1030.832197, 280.518398)"><g><path d="M 60.203125 -22.4375 C 60.203125 -26.34375 58.726562 -29.378906 55.78125 -31.546875 C 52.84375 -33.710938 47.707031 -35.578125 40.375 -37.140625 C 33.050781 -38.703125 27.238281 -40.578125 22.9375 -42.765625 C 18.644531 -44.953125 15.46875 -47.554688 13.40625 -50.578125 C 11.351562 -53.609375 10.328125 -57.207031 10.328125 -61.375 C 10.328125 -68.3125 13.253906 -74.175781 19.109375 -78.96875 C 24.972656 -83.757812 32.46875 -86.15625 41.59375 -86.15625 C 51.1875 -86.15625 58.96875 -83.679688 64.9375 -78.734375 C 70.90625 -73.785156 73.890625 -67.453125 73.890625 -59.734375 L 59.34375 -59.734375 C 59.34375 -63.691406 57.660156 -67.101562 54.296875 -69.96875 C 50.929688 -72.84375 46.695312 -74.28125 41.59375 -74.28125 C 36.332031 -74.28125 32.210938 -73.128906 29.234375 -70.828125 C 26.265625 -68.535156 24.78125 -65.539062 24.78125 -61.84375 C 24.78125 -58.351562 26.160156 -55.722656 28.921875 -53.953125 C 31.691406 -52.179688 36.6875 -50.484375 43.90625 -48.859375 C 51.125 -47.242188 56.972656 -45.316406 61.453125 -43.078125 C 65.929688 -40.835938 69.253906 -38.140625 71.421875 -34.984375 C 73.585938 -31.835938 74.671875 -27.992188 74.671875 -23.453125 C 74.671875 -15.898438 71.644531 -9.84375 65.59375 -5.28125 C 59.550781 -0.71875 51.707031 1.5625 42.0625 1.5625 C 35.289062 1.5625 29.296875 0.363281 24.078125 -2.03125 C 18.867188 -4.425781 14.789062 -7.773438 11.84375 -12.078125 C 8.894531 -16.378906 7.421875 -21.03125 7.421875 -26.03125 L 21.890625 -26.03125 C 22.148438 -21.1875 24.09375 -17.34375 27.71875 -14.5 C 31.34375 -11.664062 36.125 -10.25 42.0625 -10.25 C 47.539062 -10.25 51.929688 -11.351562 55.234375 -13.5625 C 58.546875 -15.78125 60.203125 -18.738281 60.203125 -22.4375 Z M 60.203125 -22.4375 "/></g></g></g><g fill="#ffffff" fill-opacity="1"><g transform="translate(59.91328, 241.258242)"><g><path d="M -40.234375 -81.484375 C -41.273438 -82.804688 -42.3125 -84.066406 -43.34375 -85.265625 C -44.382812 -86.460938 -45.351562 -87.707031 -46.25 -89 C -47.40625 -90.488281 -48.453125 -92.164062 -49.390625 -94.03125 C -50.335938 -95.894531 -51.007812 -97.800781 -51.40625 -99.75 C -51.800781 -101.707031 -51.835938 -103.632812 -51.515625 -105.53125 C -51.203125 -107.4375 -50.269531 -109.222656 -48.71875 -110.890625 C -46.363281 -113.421875 -43.398438 -115.0625 -39.828125 -115.8125 C -36.265625 -116.570312 -32.8125 -117.117188 -29.46875 -117.453125 C -26.226562 -117.710938 -22.96875 -117.851562 -19.6875 -117.875 C -16.414062 -117.90625 -13.109375 -118.082031 -9.765625 -118.40625 C -8.046875 -118.59375 -6.300781 -118.734375 -4.53125 -118.828125 C -2.757812 -118.929688 -1.082031 -118.820312 0.5 -118.5 C 2.082031 -118.1875 3.601562 -117.585938 5.0625 -116.703125 C 6.519531 -115.816406 7.800781 -114.554688 8.90625 -112.921875 C 10.082031 -111.179688 10.847656 -109.257812 11.203125 -107.15625 C 11.554688 -105.0625 11.863281 -103 12.125 -100.96875 C 13.519531 -89.625 13.445312 -78.179688 11.90625 -66.640625 C 11.3125 -62.367188 10.3125 -58.132812 8.90625 -53.9375 C 7.5 -49.738281 5.179688 -46.175781 1.953125 -43.25 C 5.835938 -38.632812 9.78125 -34.1875 13.78125 -29.90625 C 17.78125 -25.625 21.960938 -21.398438 26.328125 -17.234375 C 27.785156 -15.804688 28.425781 -14.28125 28.25 -12.65625 C 28.082031 -11.03125 27.484375 -9.660156 26.453125 -8.546875 C 25.421875 -7.429688 24.070312 -6.734375 22.40625 -6.453125 C 20.75 -6.179688 19.1875 -6.753906 17.71875 -8.171875 C 8.28125 -17.316406 -0.503906 -26.890625 -8.640625 -36.890625 C -16.785156 -46.898438 -24.515625 -57.429688 -31.828125 -68.484375 C -32.828125 -69.941406 -33.757812 -71.378906 -34.625 -72.796875 C -35.488281 -74.222656 -36.425781 -75.671875 -37.4375 -77.140625 C -37.8125 -77.765625 -38.171875 -78.363281 -38.515625 -78.9375 C -38.867188 -79.519531 -39.25 -80.050781 -39.65625 -80.53125 Z M -38.59375 -100.203125 C -37.5 -98.179688 -36.140625 -96.144531 -34.515625 -94.09375 C -33.835938 -93.15625 -33.394531 -92.566406 -33.1875 -92.328125 C -32.976562 -92.085938 -32.820312 -91.878906 -32.71875 -91.703125 L -30.859375 -89.546875 C -28.972656 -87.023438 -27.191406 -84.382812 -25.515625 -81.625 C -22.960938 -77.8125 -20.441406 -74.003906 -17.953125 -70.203125 C -15.472656 -66.398438 -12.867188 -62.648438 -10.140625 -58.953125 C -9.390625 -57.929688 -8.671875 -56.898438 -7.984375 -55.859375 C -7.296875 -54.816406 -6.5625 -53.859375 -5.78125 -52.984375 C -5.050781 -53.796875 -4.578125 -54.421875 -4.359375 -54.859375 C -4.140625 -55.296875 -3.898438 -55.710938 -3.640625 -56.109375 C -3.335938 -56.796875 -3.132812 -57.351562 -3.03125 -57.78125 C -1.875 -60.925781 -1.078125 -63.847656 -0.640625 -66.546875 C -0.203125 -69.242188 0.113281 -71.925781 0.3125 -74.59375 C 0.757812 -80.5 0.820312 -86.332031 0.5 -92.09375 C 0.351562 -93.34375 0.25 -94.523438 0.1875 -95.640625 C 0.125 -96.765625 0.0195312 -97.945312 -0.125 -99.1875 C -0.21875 -99.75 -0.285156 -100.257812 -0.328125 -100.71875 C -0.367188 -101.1875 -0.429688 -101.695312 -0.515625 -102.25 C -0.722656 -103.59375 -0.957031 -104.675781 -1.21875 -105.5 C -1.59375 -106.125 -1.992188 -106.492188 -2.421875 -106.609375 C -4.097656 -106.554688 -5.332031 -106.472656 -6.125 -106.359375 C -9.46875 -106.035156 -12.734375 -105.789062 -15.921875 -105.625 C -19.109375 -105.457031 -22.425781 -105.304688 -25.875 -105.171875 C -27.5625 -105.128906 -29.238281 -105.023438 -30.90625 -104.859375 C -32.582031 -104.691406 -34.265625 -104.40625 -35.953125 -104 C -36.273438 -103.925781 -36.617188 -103.835938 -36.984375 -103.734375 C -37.359375 -103.640625 -37.679688 -103.507812 -37.953125 -103.34375 C -38.617188 -103.050781 -38.984375 -102.859375 -39.046875 -102.765625 C -39.117188 -102.671875 -39.195312 -102.59375 -39.28125 -102.53125 C -39.289062 -102.15625 -39.238281 -101.820312 -39.125 -101.53125 C -39.007812 -101.238281 -38.941406 -100.976562 -38.921875 -100.75 Z M -38.59375 -100.203125 "/></g></g></g><g fill="#ffffff" fill-opacity="1"><g transform="translate(114.474374, 208.194506)"><g><path d="M -25.09375 -59.203125 C -26.03125 -60.953125 -26.175781 -62.597656 -25.53125 -64.140625 C -24.882812 -65.691406 -23.890625 -66.875 -22.546875 -67.6875 C -21.210938 -68.5 -19.773438 -68.789062 -18.234375 -68.5625 C -16.691406 -68.34375 -15.457031 -67.359375 -14.53125 -65.609375 C -14.207031 -65.078125 -13.890625 -64.507812 -13.578125 -63.90625 C -13.273438 -63.300781 -12.960938 -62.726562 -12.640625 -62.1875 C -10.648438 -65.332031 -8.378906 -68.378906 -5.828125 -71.328125 C -3.285156 -74.273438 -0.515625 -76.835938 2.484375 -79.015625 C 5.484375 -81.203125 8.707031 -82.820312 12.15625 -83.875 C 15.601562 -84.9375 19.222656 -85.15625 23.015625 -84.53125 C 24.953125 -84.113281 26.257812 -83.195312 26.9375 -81.78125 C 27.625 -80.375 27.78125 -78.914062 27.40625 -77.40625 C 27.039062 -75.90625 26.210938 -74.609375 24.921875 -73.515625 C 23.640625 -72.429688 22 -72.019531 20 -72.28125 C 18.539062 -72.488281 17.097656 -72.40625 15.671875 -72.03125 C 14.242188 -71.664062 12.851562 -71.039062 11.5 -70.15625 C 10.144531 -69.269531 8.859375 -68.273438 7.640625 -67.171875 C 6.429688 -66.066406 5.304688 -64.960938 4.265625 -63.859375 C 0.460938 -59.460938 -2.726562 -54.773438 -5.3125 -49.796875 C -2.488281 -45.546875 0.421875 -41.34375 3.421875 -37.1875 C 5.992188 -33.738281 8.585938 -30.15625 11.203125 -26.4375 C 13.828125 -22.726562 16.816406 -19.515625 20.171875 -16.796875 C 21.679688 -15.515625 22.390625 -14.085938 22.296875 -12.515625 C 22.210938 -10.941406 21.632812 -9.585938 20.5625 -8.453125 C 19.488281 -7.316406 18.097656 -6.59375 16.390625 -6.28125 C 14.691406 -5.976562 13.085938 -6.46875 11.578125 -7.75 C 9.628906 -9.363281 7.867188 -11.160156 6.296875 -13.140625 C 4.734375 -15.117188 3.171875 -17.101562 1.609375 -19.09375 C 0.191406 -21.019531 -1.257812 -22.960938 -2.75 -24.921875 C -4.238281 -26.878906 -5.703125 -28.832031 -7.140625 -30.78125 C -10.503906 -35.332031 -13.695312 -39.945312 -16.71875 -44.625 C -19.75 -49.3125 -22.539062 -54.171875 -25.09375 -59.203125 Z M -25.09375 -59.203125 "/></g></g></g><g fill="#ffffff" fill-opacity="1"><g transform="translate(170.506476, 174.239346)"><g><path d="M 5.46875 -5.15625 C 3.582031 -9.851562 1.851562 -14.554688 0.28125 -19.265625 C -1.28125 -23.984375 -3.132812 -28.625 -5.28125 -33.1875 C -7.46875 -37.59375 -9.898438 -41.753906 -12.578125 -45.671875 C -15.265625 -49.597656 -17.523438 -53.875 -19.359375 -58.5 C -20.035156 -60.019531 -19.851562 -61.582031 -18.8125 -63.1875 C -17.769531 -64.789062 -16.523438 -65.796875 -15.078125 -66.203125 C -13.285156 -66.671875 -11.722656 -66.457031 -10.390625 -65.5625 C -9.054688 -64.664062 -8.046875 -63.453125 -7.359375 -61.921875 C -6.472656 -59.648438 -5.359375 -57.457031 -4.015625 -55.34375 C -2.671875 -53.226562 -1.304688 -51.128906 0.078125 -49.046875 C 2.554688 -44.941406 4.773438 -40.675781 6.734375 -36.25 C 8.785156 -31.65625 10.628906 -27.050781 12.265625 -22.4375 C 13.910156 -17.820312 15.644531 -13.203125 17.46875 -8.578125 C 18.070312 -6.992188 17.875 -5.410156 16.875 -3.828125 C 15.882812 -2.253906 14.65625 -1.265625 13.1875 -0.859375 C 11.394531 -0.390625 9.804688 -0.585938 8.421875 -1.453125 C 7.046875 -2.328125 6.0625 -3.5625 5.46875 -5.15625 Z M -25.390625 -70.5625 C -26.117188 -70.363281 -26.914062 -70.273438 -27.78125 -70.296875 C -28.644531 -70.316406 -29.398438 -70.554688 -30.046875 -71.015625 C -30.753906 -71.566406 -31.359375 -72.054688 -31.859375 -72.484375 C -32.359375 -72.910156 -32.820312 -73.476562 -33.25 -74.1875 C -33.738281 -74.988281 -34.09375 -75.875 -34.3125 -76.84375 C -34.925781 -78.65625 -34.910156 -80.25 -34.265625 -81.625 C -34.234375 -82.363281 -33.988281 -83.0625 -33.53125 -83.71875 C -32.9375 -84.9375 -32.03125 -85.945312 -30.8125 -86.75 C -29.59375 -87.550781 -28.273438 -87.890625 -26.859375 -87.765625 C -26.191406 -87.671875 -25.515625 -87.554688 -24.828125 -87.421875 C -24.140625 -87.296875 -23.472656 -87.003906 -22.828125 -86.546875 C -22.378906 -86.203125 -21.878906 -85.828125 -21.328125 -85.421875 C -20.785156 -85.023438 -20.394531 -84.535156 -20.15625 -83.953125 C -19.875 -83.273438 -19.613281 -82.640625 -19.375 -82.046875 C -19.144531 -81.460938 -19.070312 -80.84375 -19.15625 -80.1875 C -19.21875 -79.289062 -19.300781 -78.625 -19.40625 -78.1875 C -19.507812 -77.757812 -19.738281 -77.140625 -20.09375 -76.328125 C -20.238281 -75.742188 -20.613281 -75.144531 -21.21875 -74.53125 C -22.4375 -72.34375 -23.828125 -71.019531 -25.390625 -70.5625 Z M -25.390625 -70.5625 "/></g></g></g><g fill="#ffffff" fill-opacity="1"><g transform="translate(201.263955, 155.600476)"><g><path d="M 3.09375 -28.390625 C 0.976562 -30.265625 -1.09375 -32.234375 -3.125 -34.296875 C -5.164062 -36.359375 -7.25 -38.328125 -9.375 -40.203125 C -12.675781 -43.441406 -16.472656 -46.390625 -20.765625 -49.046875 C -22.929688 -50.410156 -25.109375 -51.796875 -27.296875 -53.203125 C -29.492188 -54.617188 -31.46875 -56.257812 -33.21875 -58.125 C -34.59375 -59.59375 -35.148438 -61.171875 -34.890625 -62.859375 C -34.640625 -64.546875 -34 -65.941406 -32.96875 -67.046875 C -31.9375 -68.160156 -30.628906 -68.832031 -29.046875 -69.0625 C -27.472656 -69.289062 -26 -68.664062 -24.625 -67.1875 C -22.875 -65.300781 -20.914062 -63.734375 -18.75 -62.484375 C -16.59375 -61.242188 -14.429688 -59.941406 -12.265625 -58.578125 C -10.046875 -57.117188 -7.929688 -55.535156 -5.921875 -53.828125 C -3.910156 -52.117188 -1.945312 -50.382812 -0.03125 -48.625 C 2.082031 -46.726562 4.171875 -44.726562 6.234375 -42.625 C 8.304688 -40.53125 10.441406 -38.566406 12.640625 -36.734375 C 13.460938 -36.003906 14.285156 -35.3125 15.109375 -34.65625 C 15.941406 -34.007812 16.804688 -33.34375 17.703125 -32.65625 C 17.015625 -35.78125 16.359375 -38.460938 15.734375 -40.703125 C 15.109375 -42.953125 14.609375 -45.1875 14.234375 -47.40625 C 13.609375 -50.664062 12.941406 -53.878906 12.234375 -57.046875 C 11.535156 -60.222656 10.703125 -63.410156 9.734375 -66.609375 C 8.878906 -69.628906 7.832031 -72.554688 6.59375 -75.390625 C 5.363281 -78.234375 4.316406 -81.164062 3.453125 -84.1875 C 2.929688 -86.0625 3.175781 -87.671875 4.1875 -89.015625 C 5.207031 -90.367188 6.445312 -91.242188 7.90625 -91.640625 C 9.375 -92.035156 10.867188 -91.929688 12.390625 -91.328125 C 13.910156 -90.734375 14.9375 -89.5 15.46875 -87.625 C 16.351562 -84.144531 17.523438 -80.804688 18.984375 -77.609375 C 20.441406 -74.410156 21.585938 -71.109375 22.421875 -67.703125 C 23.347656 -64.359375 24.144531 -60.972656 24.8125 -57.546875 C 25.488281 -54.128906 26.207031 -50.691406 26.96875 -47.234375 C 27.53125 -44.890625 28.128906 -42.484375 28.765625 -40.015625 C 29.410156 -37.546875 29.90625 -35.070312 30.25 -32.59375 C 30.59375 -30.113281 30.65625 -27.648438 30.4375 -25.203125 C 30.21875 -22.753906 29.519531 -20.382812 28.34375 -18.09375 C 27.25 -16.09375 25.742188 -15.054688 23.828125 -14.984375 C 21.910156 -14.921875 20.140625 -15.429688 18.515625 -16.515625 C 15.867188 -18.453125 13.25 -20.40625 10.65625 -22.375 C 8.070312 -24.34375 5.550781 -26.347656 3.09375 -28.390625 Z M 3.09375 -28.390625 "/></g></g></g><g fill="#ffffff" fill-opacity="1"><g transform="translate(254.354039, 123.428164)"><g><path d="M 5.46875 -5.15625 C 3.582031 -9.851562 1.851562 -14.554688 0.28125 -19.265625 C -1.28125 -23.984375 -3.132812 -28.625 -5.28125 -33.1875 C -7.46875 -37.59375 -9.898438 -41.753906 -12.578125 -45.671875 C -15.265625 -49.597656 -17.523438 -53.875 -19.359375 -58.5 C -20.035156 -60.019531 -19.851562 -61.582031 -18.8125 -63.1875 C -17.769531 -64.789062 -16.523438 -65.796875 -15.078125 -66.203125 C -13.285156 -66.671875 -11.722656 -66.457031 -10.390625 -65.5625 C -9.054688 -64.664062 -8.046875 -63.453125 -7.359375 -61.921875 C -6.472656 -59.648438 -5.359375 -57.457031 -4.015625 -55.34375 C -2.671875 -53.226562 -1.304688 -51.128906 0.078125 -49.046875 C 2.554688 -44.941406 4.773438 -40.675781 6.734375 -36.25 C 8.785156 -31.65625 10.628906 -27.050781 12.265625 -22.4375 C 13.910156 -17.820312 15.644531 -13.203125 17.46875 -8.578125 C 18.070312 -6.992188 17.875 -5.410156 16.875 -3.828125 C 15.882812 -2.253906 14.65625 -1.265625 13.1875 -0.859375 C 11.394531 -0.390625 9.804688 -0.585938 8.421875 -1.453125 C 7.046875 -2.328125 6.0625 -3.5625 5.46875 -5.15625 Z M -25.390625 -70.5625 C -26.117188 -70.363281 -26.914062 -70.273438 -27.78125 -70.296875 C -28.644531 -70.316406 -29.398438 -70.554688 -30.046875 -71.015625 C -30.753906 -71.566406 -31.359375 -72.054688 -31.859375 -72.484375 C -32.359375 -72.910156 -32.820312 -73.476562 -33.25 -74.1875 C -33.738281 -74.988281 -34.09375 -75.875 -34.3125 -76.84375 C -34.925781 -78.65625 -34.910156 -80.25 -34.265625 -81.625 C -34.234375 -82.363281 -33.988281 -83.0625 -33.53125 -83.71875 C -32.9375 -84.9375 -32.03125 -85.945312 -30.8125 -86.75 C -29.59375 -87.550781 -28.273438 -87.890625 -26.859375 -87.765625 C -26.191406 -87.671875 -25.515625 -87.554688 -24.828125 -87.421875 C -24.140625 -87.296875 -23.472656 -87.003906 -22.828125 -86.546875 C -22.378906 -86.203125 -21.878906 -85.828125 -21.328125 -85.421875 C -20.785156 -85.023438 -20.394531 -84.535156 -20.15625 -83.953125 C -19.875 -83.273438 -19.613281 -82.640625 -19.375 -82.046875 C -19.144531 -81.460938 -19.070312 -80.84375 -19.15625 -80.1875 C -19.21875 -79.289062 -19.300781 -78.625 -19.40625 -78.1875 C -19.507812 -77.757812 -19.738281 -77.140625 -20.09375 -76.328125 C -20.238281 -75.742188 -20.613281 -75.144531 -21.21875 -74.53125 C -22.4375 -72.34375 -23.828125 -71.019531 -25.390625 -70.5625 Z M -25.390625 -70.5625 "/></g></g></g><g fill="#ffffff" fill-opacity="1"><g transform="translate(145.782718, 369.422661)"><g><path d="M 50.984375 -89.75 C 51.609375 -87.457031 52.078125 -85.0625 52.390625 -82.5625 C 52.703125 -80.0625 53.066406 -77.585938 53.484375 -75.140625 C 53.898438 -72.691406 54.445312 -70.289062 55.125 -67.9375 C 55.800781 -65.59375 56.765625 -63.378906 58.015625 -61.296875 C 59.054688 -59.523438 59.289062 -57.882812 58.71875 -56.375 C 58.144531 -54.863281 57.179688 -53.71875 55.828125 -52.9375 C 54.472656 -52.15625 52.957031 -51.867188 51.28125 -52.078125 C 49.613281 -52.285156 48.257812 -53.273438 47.21875 -55.046875 C 45.863281 -57.234375 44.796875 -59.523438 44.015625 -61.921875 C 43.234375 -64.316406 42.609375 -66.738281 42.140625 -69.1875 C 41.671875 -71.644531 41.253906 -74.125 40.890625 -76.625 C 40.523438 -79.125 40.03125 -81.570312 39.40625 -83.96875 C 38.78125 -86.78125 38 -89.644531 37.0625 -92.5625 C 36.125 -95.488281 34.925781 -98.203125 33.46875 -100.703125 C 32.113281 -97.992188 30.988281 -95.148438 30.09375 -92.171875 C 29.207031 -89.203125 28.085938 -86.363281 26.734375 -83.65625 C 25.898438 -81.882812 24.882812 -80.085938 23.6875 -78.265625 C 22.488281 -76.441406 21.316406 -74.585938 20.171875 -72.703125 C 19.023438 -70.828125 18.035156 -68.898438 17.203125 -66.921875 C 16.367188 -64.941406 15.847656 -62.910156 15.640625 -60.828125 C 15.429688 -59.054688 14.804688 -57.570312 13.765625 -56.375 C 12.722656 -55.175781 11.257812 -54.578125 9.375 -54.578125 C 7.8125 -54.578125 6.351562 -55.175781 5 -56.375 C 3.644531 -57.570312 3.070312 -59.054688 3.28125 -60.828125 C 3.488281 -63.640625 4.0625 -66.269531 5 -68.71875 C 5.9375 -71.175781 7.03125 -73.578125 8.28125 -75.921875 C 9.539062 -78.265625 10.875 -80.582031 12.28125 -82.875 C 13.6875 -85.164062 14.960938 -87.566406 16.109375 -90.078125 C 17.046875 -92.265625 17.929688 -94.476562 18.765625 -96.71875 C 19.597656 -98.957031 20.429688 -101.144531 21.265625 -103.28125 C 22.097656 -105.414062 23.085938 -107.523438 24.234375 -109.609375 C 25.378906 -111.703125 26.734375 -113.6875 28.296875 -115.5625 C 29.453125 -116.914062 30.914062 -117.515625 32.6875 -117.359375 C 34.457031 -117.203125 35.96875 -116.601562 37.21875 -115.5625 C 40.96875 -112.332031 43.882812 -108.394531 45.96875 -103.75 C 48.050781 -99.113281 49.722656 -94.445312 50.984375 -89.75 Z M 50.984375 -89.75 "/></g></g></g></svg>